<?xml version="1.0" encoding="UTF-8"?>
<svg width="36px" height="36px" viewBox="0 0 36 36" version="1.1" xmlns="http://www.w3.org/2000/svg" xmlns:xlink="http://www.w3.org/1999/xlink">
    <!-- Generator: Sketch 54.1 (76490) - https://sketchapp.com -->
    <title>在看</title>
    <desc>Created with Sketch.</desc>
    <g id="Page-1" stroke="none" stroke-width="1" fill="none" fill-rule="evenodd">
        <g id="movie" transform="translate(-574.000000, -1244.000000)" fill="#474747">
            <g id="Group-4" transform="translate(500.000000, 1218.000000)">
                <g id="Group-9" transform="translate(74.000000, 26.000000)">
                    <g id="在看">
                        <g transform="translate(0.000000, 6.000000)" id="Path">
                            <path d="M18,24 C6.97130418,24 0,14.4042648 0,12.0006364 C0,10.4082326 2.3012072,7.07695389 5.81001385,4.30526991 L7.14585395,5.85260568 C3.77241243,8.32008045 1.96635662,11.3659283 1.9022363,12.0194148 C2.06253711,13.5930402 8.15753018,21.8818025 18,21.8818025 C28.0277063,21.8818025 33.9054027,13.1423599 34.1013259,11.948057 C33.9802098,11.3321273 31.8642391,7.89568981 27.8068474,5.19911921 C27.3045715,4.86110897 26.7702355,4.54187708 26.214526,4.24142353 C25.5840095,3.90341329 24.9249951,3.59169273 24.2303582,3.31752887 C23.7565802,3.1297454 23.2685533,2.96074028 22.7734019,2.8105135 C18.4773402,1.53734159 14.3344548,2.07440231 10.1238868,4.0123277 L8.72392638,2.38987854 C13.2337225,-0.133931269 18.5272116,-0.633435293 23.2614289,0.771185045 C23.8135761,0.936434497 24.3479121,1.1204623 24.8679992,1.32702411 C25.6053829,1.61996632 26.3392044,1.95797656 27.044528,2.34105484 C27.6501088,2.66779807 28.230754,3.01707532 28.7829012,3.38513092 C33.1893924,6.31455301 36,10.4457893 36,12.0043921 C36,14.3216401 28.8113992,24 18,24" fill-rule="nonzero"></path>
                            <path d="M18.0014055,18 C14.6900914,18 12,15.3087844 12,12 C12,11.675244 12.0815179,10.7622005 12.1321152,10.4480923 L13.5010541,11.8748891 C13.5010541,11.8748891 13.4982431,11.755102 13.4982431,12 C13.4982431,14.4809228 15.5165144,16.498669 17.9985945,16.498669 C20.4806746,16.498669 22.4989459,14.4809228 22.4989459,12 C22.4989459,9.5190772 20.4806746,7.50133097 17.9985945,7.50133097 C16.6633872,7.50133097 15.3534786,8.10559006 14.493324,9.16503993 L13.4532677,8.08163265 C14.6226283,6.75865129 16.2220661,6 17.9985945,6 C21.3099086,6 24,8.69121562 24,12 C24,15.3087844 21.3099086,18 18.0014055,18" fill-rule="nonzero"></path>
                        </g>
                    </g>
                </g>
            </g>
        </g>
    </g>
</svg>