<?xml version="1.0" encoding="UTF-8"?>
<svg width="40px" height="37px" viewBox="0 0 40 37" version="1.1" xmlns="http://www.w3.org/2000/svg" xmlns:xlink="http://www.w3.org/1999/xlink">
    <title>未命名2</title>
    <g id="页面-1" stroke="none" stroke-width="1" fill="none" fill-rule="evenodd">
        <g id="icon-lab" fill-rule="nonzero">
            <path d="M28.2758165,35.8750464 L5.46797744,35.8750464 C4.26055416,35.8750464 3.18203728,35.1789518 2.65352104,34.0531693 C2.09062976,32.8629335 2.25820808,31.5008226 3.08750592,30.4953526 L12.2914229,19.203152 L12.2914229,6.48868408 C10.925015,6.2480588 9.88517008,5.01055736 9.88517008,3.52383688 C9.88517008,1.8652412 11.1828278,0.51602088 12.7812672,0.51602088 L20.9625267,0.51602088 C22.5609661,0.51602088 23.8586238,1.8652412 23.8586238,3.52383688 C23.8586238,5.01055736 22.8187789,6.24376192 21.452371,6.48868408 L21.452371,19.203152 L30.6605849,30.4996495 C31.4855858,31.5008226 31.6531642,32.8672304 31.0902729,34.0531693 C30.5617566,35.1789518 29.4789429,35.8750464 28.2758165,35.8750464 L28.2758165,35.8750464 Z M12.7812672,1.98125696 C11.9906413,1.98125696 11.3461093,2.67305464 11.3461093,3.52813376 C11.3461093,4.38321288 11.9906413,5.07501056 12.7812672,5.07501056 L13.0218925,5.07501056 C13.4257992,5.07501056 13.7523621,5.40157344 13.7523621,5.80548016 L13.7523621,19.4609648 C13.7523621,19.6285431 13.6922058,19.7918246 13.5890806,19.920731 L4.21328848,31.4234787 C3.65469408,32.1023858 3.72344416,32.9059023 3.9726632,33.4344186 C4.26485104,34.0488724 4.82344544,34.4184041 5.46797744,34.4184041 L28.2758165,34.4184041 C28.9203485,34.4184041 29.4789429,34.0488724 29.7711307,33.4344186 C30.0203498,32.9059023 30.0890998,32.1023858 29.5305054,31.4277756 L20.1547133,19.9250278 C20.0472913,19.7961214 19.9914318,19.63284 19.9914318,19.4652617 L19.9914318,5.80118328 C19.9914318,5.39727656 20.3179947,5.07071368 20.7219014,5.07071368 L20.9625267,5.07071368 C21.7531526,5.07071368 22.3976846,4.378916 22.3976846,3.52383688 C22.3976846,2.66875776 21.7531526,1.97696008 20.9625267,1.97696008 L12.7812672,1.97696008 L12.7812672,1.98125696 Z" id="Shape" stroke="#474747" stroke-width="0.5" fill="#474747"></path>
            <path d="M25.7664386,5.80118328 L27.2273778,5.80118328 L27.2273778,13.3894734 L25.7664386,13.3894734 L25.7664386,5.80118328 Z M29.616443,5.80118328 L31.0773822,5.80118328 L31.0773822,13.3894734 L29.616443,13.3894734 L29.616443,5.80118328 Z" id="Shape" stroke="#474747" stroke-width="0.5" fill="#474747"></path>
            <path d="M30.4672253,35.1144986 C30.1363655,35.1144986 29.831287,34.886764 29.7539432,34.5473105 C29.6637087,34.1519975 29.9086309,33.7609814 30.3039438,33.670747 C34.6867614,32.665277 37.8664526,28.4973034 37.8664526,23.7578448 C37.8664526,18.163307 33.5523851,13.6129111 28.2543321,13.6129111 C25.8180011,13.6129111 23.493389,14.5754122 21.7101838,16.3242424 C21.4222929,16.6078365 20.9582298,16.6035396 20.6789326,16.3156486 C20.3953386,16.0277577 20.3996354,15.5636946 20.6875264,15.2843974 C22.7457319,13.2648638 25.4312819,12.1562688 28.2543321,12.1562688 C31.2191793,12.1562688 34.0035575,13.367989 36.0961381,15.5679915 C38.1801249,17.7594003 39.3273918,20.6683881 39.3273918,23.7621417 C39.3273918,26.4176135 38.4465314,29.0172259 36.852389,31.0754314 C35.2711371,33.1121526 33.0625408,34.5430136 30.6305067,35.0973111 C30.5746473,35.1102018 30.5230847,35.1144986 30.4672253,35.1144986 L30.4672253,35.1144986 Z M31.3094138,6.53165288 L25.534407,6.53165288 C25.1305003,6.53165288 24.8039374,6.20509 24.8039374,5.80118328 C24.8039374,5.39727656 25.1305003,5.07071368 25.534407,5.07071368 L31.3094138,5.07071368 C31.7133205,5.07071368 32.0398834,5.39727656 32.0398834,5.80118328 C32.0398834,6.20509 31.7133205,6.53165288 31.3094138,6.53165288 Z" id="Shape" stroke="#474747" stroke-width="0.5" fill="#474747"></path>
            <path d="M20.846511,24.539877 L12.6695483,24.539877 L5.76875904,32.6008238 L27.4894874,32.6008238 L20.846511,24.539877 Z M13.9843936,31.4707444 C12.9918143,31.4707444 12.1882978,30.624259 12.1882978,29.5844141 C12.1882978,28.5402722 12.9918143,27.6980838 13.9843936,27.6980838 C14.9769729,27.6980838 15.7804894,28.5445691 15.7804894,29.5844141 C15.7804894,30.624259 14.9769729,31.4707444 13.9843936,31.4707444 Z M18.5562739,28.441444 C17.9590076,28.441444 17.4734602,27.9301153 17.4734602,27.3027708 C17.4734602,26.6754263 17.9590076,26.1640976 18.5562739,26.1640976 C19.1535402,26.1640976 19.6390877,26.6754263 19.6390877,27.3027708 C19.6390877,27.9301153 19.1535402,28.441444 18.5562739,28.441444 Z" id="Shape" fill="#FFE200"></path>
            <path d="M38.5281722,35.8750464 L1.47187904,35.8750464 C1.06797232,35.8750464 0.74140944,35.5484835 0.74140944,35.1445768 C0.74140944,34.7406701 1.06797232,34.4141072 1.47187904,34.4141072 L38.5281722,34.4141072 C38.9320789,34.4141072 39.2586418,34.7406701 39.2586418,35.1445768 C39.2586418,35.5484835 38.9320789,35.8750464 38.5281722,35.8750464 Z" id="Path" stroke="#474747" stroke-width="0.5" fill="#474747"></path>
        </g>
    </g>
</svg>