<?xml version="1.0" standalone="no"?><!DOCTYPE svg PUBLIC "-//W3C//DTD SVG 1.1//EN" "http://www.w3.org/Graphics/SVG/1.1/DTD/svg11.dtd"><svg t="1598240821378" class="icon" viewBox="0 0 1024 1024" version="1.1" xmlns="http://www.w3.org/2000/svg" p-id="5478" width="87" height="87" xmlns:xlink="http://www.w3.org/1999/xlink"><defs><style type="text/css"></style></defs><path d="M708.93612498 591.23540647a171.31979718 171.31979718 0 1 0 171.31979719 171.31979635 171.31979718 171.31979718 0 0 0-171.31979719-171.31979635z m116.06916275 147.33502514a53.53743631 53.53743631 0 0 1-32.5507618 14.9904819 50.53934043 50.53934043 0 0 1-19.2734772-2.14149764h-3.42639542a7.28109119 7.28109119 0 0 0-6.85279166 2.56979717l-109.2163711 116.06916274a21.41497485 21.41497485 0 0 1-31.26586322 1e-8 21.84327439 21.84327439 0 0 1 0-31.26586322l115.21256369-110.07296933a7.70939072 7.70939072 0 0 0 0-8.13769024 56.53553302 56.53553302 0 0 1-2.56979717-20.98667532 50.96763996 50.96763996 0 0 1 14.99048272-32.55076181 53.10913677 53.10913677 0 0 1 38.97525394-15.41878144v23.12817297l-8.99428931 9.42258884-7.281092 6.85279166-6.85279166 7.28109118 5.13959435 19.27347721 19.27347721 5.13959436 6.85279166-7.28109201 7.28109119-6.85279166 8.9942893-9.42258884h23.12817297a51.39593948 51.39593948 0 0 1-11.56408649 39.40355347z" p-id="5479" fill="#495f69"></path><path d="M633.12711477 847.78680188a6.85279165 6.85279165 0 0 0 0 10.2791879 7.70939072 7.70939072 0 0 0 10.70748742 0 7.70939072 7.70939072 0 0 0 0-10.2791879 7.70939072 7.70939072 0 0 0-10.70748742 0zM708.50782546 553.54505112a211.57994888 211.57994888 0 0 1 77.52220834 14.9904819V172.35850235A85.65989858 85.65989858 0 0 0 700.37013521 90.125H272.07064308a85.65989858 85.65989858 0 0 0-85.65989859 82.23350235v618.03616745a85.65989858 85.65989858 0 0 0 85.65989859 82.23350317h250.98350235a214.14974606 214.14974606 0 0 1 185.45368003-319.08312185z m-342.63959355-235.13642139a21.41497485 21.41497485 0 0 1 29.98096465 0L443.39044026 364.23667532l136.62753773-106.21827439a21.84327439 21.84327439 0 0 1 29.98096462 2.99809672 20.13007627 20.13007627 0 0 1-3.42639624 29.12436557L453.66962733 407.92322326a22.27157391 22.27157391 0 0 1-28.26776567 0L364.1550338 347.10469577a19.70177674 19.70177674 0 0 1 0-28.69606604zM272.07064308 481.16243631h428.29949213a20.98667532 20.98667532 0 1 1 0 42.82994971H272.07064308a20.98667532 20.98667532 0 1 1 0-42.82994971z m192.73477121 151.18972091H272.07064308a20.55837579 20.55837579 0 0 1-21.41497485-20.55837578 20.98667532 20.98667532 0 0 1 21.41497485-20.55837497h192.73477121a20.98667532 20.98667532 0 0 1 21.41497486 20.55837497 20.55837579 20.55837579 0 0 1-21.41497486 20.55837578z" p-id="5480" fill="#495f69"></path></svg>