<?xml version="1.0" standalone="no"?><!DOCTYPE svg PUBLIC "-//W3C//DTD SVG 1.1//EN" "http://www.w3.org/Graphics/SVG/1.1/DTD/svg11.dtd"><svg t="1614592915646" class="icon" viewBox="0 0 1024 1024" version="1.1" xmlns="http://www.w3.org/2000/svg" p-id="5599" width="72" height="72" xmlns:xlink="http://www.w3.org/1999/xlink"><defs><style type="text/css"></style></defs><path d="M608.256 345.6H286.208c-16.896 0-30.72 13.824-30.72 30.72s13.824 30.72 30.72 30.72h322.048c16.896 0 30.72-13.824 30.72-30.72s-13.824-30.72-30.72-30.72zM504.832 540.672H286.208c-16.896 0-30.72 13.824-30.72 30.72s13.824 30.72 30.72 30.72h218.624c16.896 0 30.72-13.824 30.72-30.72s-13.824-30.72-30.72-30.72z" fill="#999999" p-id="5600"></path><path d="M779.264 788.48V143.36c0-50.688-41.472-92.16-92.16-92.16H225.792c-50.688 0-92.16 41.472-92.16 92.16v645.12c0 50.688 41.472 92.16 92.16 92.16h461.312c50.688 0 92.16-41.472 92.16-92.16z m-584.192 0V143.36c0-16.896 13.824-30.72 30.72-30.72h461.312c16.896 0 30.72 13.824 30.72 30.72v645.12c0 16.896-13.824 30.72-30.72 30.72H225.792c-16.896 0-30.72-13.824-30.72-30.72z" fill="#999999" p-id="5601"></path><path d="M873.984 309.248c-16.896 0-30.72 13.824-30.72 30.72v562.688c0 21.504-17.408 38.912-38.912 38.912H346.112c-16.896 0-30.72 13.824-30.72 30.72s13.824 30.72 30.72 30.72h458.24c55.296 0 100.352-45.056 100.352-100.352V339.968c0-16.896-13.824-30.72-30.72-30.72z" fill="#999999" p-id="5602"></path></svg>