<?xml version="1.0" encoding="UTF-8"?>
<svg width="68px" height="68px" viewBox="0 0 68 68" version="1.1" xmlns="http://www.w3.org/2000/svg" xmlns:xlink="http://www.w3.org/1999/xlink">
    <title>未命名</title>
    <g id="页面-1" stroke="none" stroke-width="1" fill="none" fill-rule="evenodd">
        <g id="tab-user" fill-rule="nonzero">
            <path d="M53.84475,54.99 C59.6959475,49.4761593 63.0090484,41.7898302 63.0000369,33.75 C63.0000369,17.6175 49.8825,4.5 33.75,4.5 C17.6175,4.5 4.5,17.6175 4.5,33.75 C4.5,42.0975 8.01225,49.6575 13.65975,54.99 C13.99725,52.245 15.05475,49.9275 16.80975,48.06 C20.13975,44.4825 25.6725,42.75 33.75,42.75 C41.82975,42.75 47.36475,44.4825 50.69475,48.06 C52.44975,49.9275 53.50725,52.245 53.84475,54.99 Z M49.45725,58.41 L49.45725,58.3425 C49.68,55.215 49.00725,52.8525 47.40975,51.12 C45,48.555 40.41,47.25 33.75,47.25 C27.09,47.25 22.5,48.555 20.09475,51.12 C18.49725,52.8525 17.82,55.215 18.04725,58.3425 L18.04725,58.41 C22.7351234,61.4095839 28.1846021,63.0024965 33.75,63.0000058 C39.51225,63.0000058 44.91,61.3125 49.45725,58.41 L49.45725,58.41 Z M33.75,0 C52.35975,0 67.5,15.1425 67.5,33.75 C67.5,52.3575 52.35975,67.5 33.75,67.5 C15.14475,67.5 0,52.3575 0,33.75 C0,15.1425 15.14475,0 33.75,0 Z" id="形状" fill="#373737"></path>
            <path d="M33.75,15.75 C39.8755236,15.8725166 44.7772388,20.8732513 44.7772388,27 C44.7772388,33.1267487 39.8755236,38.1274834 33.75,38.25 C27.54,38.25 22.5,33.21 22.5,27 C22.5,20.79 27.54,15.75 33.75,15.75 Z M33.75,20.25 C30.03975,20.25 27,23.2875 27,27 C27,30.7125 30.03975,33.75 33.75,33.75 C37.4625,33.75 40.5,30.7125 40.5,27 C40.5,23.2875 37.4625,20.25 33.75,20.25 Z" id="形状结合" fill="#FFE200"></path>
        </g>
    </g>
</svg>