<?xml version="1.0" encoding="UTF-8"?>
<svg width="59px" height="59px" viewBox="0 0 59 59" version="1.1" xmlns="http://www.w3.org/2000/svg" xmlns:xlink="http://www.w3.org/1999/xlink">
    <title>未命名</title>
    <g id="页面-1" stroke="none" stroke-width="1" fill="none" fill-rule="evenodd">
        <g id="tab-news" fill="#707070" fill-rule="nonzero">
            <path d="M27,4.5 L27,9 L9,9 C7.734,9.0465 6.6795,9.492 5.8365,10.3365 C4.9935,11.181 4.548,12.2355 4.5,13.5 L4.5,49.5 C4.5465,50.766 4.992,51.8205 5.8365,52.6635 C6.681,53.5065 7.7355,53.952 9,54 L45,54 C46.266,53.9535 47.3205,53.508 48.1635,52.6635 C49.0065,51.819 49.452,50.7645 49.5,49.5 L49.5,31.5 L54,31.5 L54,49.5 C53.9535,52.032 53.0745,54.153 51.363,55.863 C49.6515,57.573 47.5305,58.452 45,58.5 L9,58.5 C6.468,58.4535 4.347,57.5745 2.637,55.863 C0.927,54.1515 0.048,52.0305 0,49.5 L0,13.5 C0.0465,10.968 0.9255,8.847 2.637,7.137 C4.3485,5.427 6.4695,4.548 9,4.5 L27,4.5 Z" id="形状"></path>
            <path d="M45,0 C48.8445,0.0945 52.032,1.407 54.5625,3.9375 C57.093,6.468 58.4055,9.6555 58.5,13.5 C58.4055,17.3445 57.093,20.532 54.5625,23.0625 C52.032,25.593 48.8445,26.9055 45,27 C41.1555,26.9055 37.968,25.593 35.4375,23.0625 C32.907,20.532 31.5945,17.3445 31.5,13.5 C31.5945,9.6555 32.907,6.468 35.4375,3.9375 C37.968,1.407 41.1555,0.0945 45,0 Z M45,4.5 C42.468,4.5465 40.347,5.4255 38.637,7.137 C36.927,8.8485 36.048,10.9695 36,13.5 C36.0465,16.032 36.9255,18.153 38.637,19.863 C40.3485,21.573 42.4695,22.452 45,22.5 C47.532,22.4535 49.653,21.5745 51.363,19.863 C53.073,18.1515 53.952,16.0305 54,13.5 C53.9535,10.968 53.0745,8.847 51.363,7.137 C49.6515,5.427 47.5305,4.548 45,4.5 Z" id="形状结合"></path>
        </g>
    </g>
</svg>