<?xml version="1.0" encoding="UTF-8"?>
<svg width="57px" height="57px" viewBox="0 0 57 57" version="1.1" xmlns="http://www.w3.org/2000/svg" xmlns:xlink="http://www.w3.org/1999/xlink">
    <title>未命名2</title>
    <g id="页面-1" stroke="none" stroke-width="1" fill="none" fill-rule="evenodd">
        <g id="发现-(1)" fill="#707070" fill-rule="nonzero">
            <path d="M28.3992188,56.7351562 C35.4375,56.7351562 42.496875,54.1335937 47.98125,48.9023438 C59.2875,38.1023437 59.709375,20.109375 48.909375,8.79609375 C43.678125,3.31171875 36.6257813,0.196875 29.053125,0.02109375 C21.4804688,-0.1546875 14.2875,2.6296875 8.81015625,7.8609375 C6.22265625,10.3289063 4.15546875,13.2117187 2.66484375,16.425 C2.24296875,17.325 2.63671875,18.4007813 3.54375,18.815625 C4.44375,19.2375 5.51953125,18.84375 5.934375,17.9367188 C7.23515625,15.13125 9.0421875,12.6140625 11.2992188,10.4625 C16.0804688,5.8921875 22.3734375,3.46640625 28.96875,3.62109375 C35.578125,3.77578125 41.7375,6.496875 46.3007812,11.278125 C55.7296875,21.1640625 55.3640625,36.8648437 45.4851563,46.29375 C40.7039063,50.8640625 34.4109375,53.2828125 27.815625,53.1351562 C21.20625,52.9804687 15.046875,50.259375 10.4765625,45.478125 C5.8640625,40.6476563 3.43828125,34.3125 3.6421875,27.6328125 C3.6703125,26.6414062 2.88984375,25.8046875 1.89140625,25.7765625 C0.90703125,25.7625 0.06328125,26.5289062 0.03515625,27.5273438 C-0.196875,35.1773437 2.5875,42.440625 7.86796875,47.9742187 C13.4367188,53.7960937 20.9109375,56.7351562 28.3992188,56.7351562 Z" id="路径"></path>
            <path d="M36.3726562,32.034375 C36.5273438,32.0765625 36.675,32.090625 36.8296875,32.090625 C37.63125,32.090625 38.3625,31.5492187 38.5734375,30.740625 L42.1382812,16.9945312 C42.3,16.3757812 42.1171875,15.721875 41.6671875,15.2648437 C41.2171875,14.8148437 40.55625,14.6320312 39.9375,14.79375 L26.1914062,18.3585937 C25.228125,18.6117187 24.6515625,19.5890625 24.8976562,20.559375 C25.1507812,21.5226562 26.1351562,22.0992187 27.0984375,21.853125 L37.8773438,19.0546875 L35.0789063,29.8335937 C34.8328125,30.8039062 35.409375,31.7882812 36.3726563,32.034375 L36.3726562,32.034375 Z M20.7421875,24.7289062 C19.7789062,24.4828125 18.7945312,25.059375 18.5414062,26.0226562 L14.9765625,39.7617188 C14.8148437,40.3804687 14.9976562,41.034375 15.4476562,41.4914062 C15.7921875,41.8359375 16.2492187,42.01875 16.7203125,42.01875 C16.8679687,42.01875 17.0226562,41.9976563 17.1703125,41.9625 L30.9164063,38.3976562 C31.8796875,38.1445312 32.45625,37.1671875 32.2101562,36.196875 C31.9570312,35.2335937 30.9726562,34.6570313 30.009375,34.903125 L19.2304688,37.7015625 L22.0289063,26.9226562 C22.2820313,25.959375 21.7054688,24.9820312 20.7421875,24.7289063 L20.7421875,24.7289062 Z" id="形状"></path>
        </g>
    </g>
</svg>